<svg version="1.1" preserveAspectRatio="none" xmlns="http://www.w3.org/2000/svg" width="500" height="500" viewBox="0 0 500 500"><rect width="100%" height="100%" fill="#94937A" fill-opacity="1"/><svg viewBox="38.4828 197.4244 484.4562 291.8459" width="333" height="200.60571977404763" x="83.5px" y="149.6971px" xmlns="http://www.w3.org/2000/svg" xmlns:xlink="http://www.w3.org/1999/xlink" preserveAspectRatio="none"><defs></defs><style>.aLgOaV3zRcolors-3 {fill:#636326;fill-opacity:1;}.aLgOaV3zRcolors-4 {fill:#000000;fill-opacity:1;}.aLgOaV3zRcolors-5 {fill:#5F5F5F;fill-opacity:1;}.aLgOaV3zRcolors-6 {fill:#949494;fill-opacity:1;}.aLgOaV3zRcolors-7 {fill:#D4D4D1;fill-opacity:1;}.companyName {fill:#F1F1F1;fill-opacity:1;}.icon1 {fill:#2E492F;fill-opacity:1;}.icon2 {fill:#F1F1F1;fill-opacity:1;}.icon3 {fill:#84814F;fill-opacity:1;}.icon3-str {stroke:#84814F;stroke-opacity:1;}.text {fill:#F1F1F1;fill-opacity:1;}</style><g opacity="1" transform="rotate(0 38.4828 466.7703)">
<svg width="484.4562" height="22.5" x="38.4828" y="466.7703" version="1.1" preserveAspectRatio="none" viewBox="1.36 -28 773.32 35.92">
  <g transform="matrix(1 0 0 1 0 0)" class="text"><path id="id-6izo4zJp33" d="M18.20 0L18.20-3.20Q15.80 0.32 11.04 0.32L11.04 0.32Q6.72 0.32 4-2.68L4-2.68Q1.36-5.64 1.36-10L1.36-10Q1.36-14.36 4-17.32L4-17.32Q6.72-20.32 11.24-20.32Q15.76-20.32 18.20-16.76L18.20-16.76L18.20-28L21.20-28L21.20 0L18.20 0ZM11.44-2.40L11.44-2.40Q14.68-2.40 16.56-4.64L16.56-4.64Q18.36-6.76 18.36-10L18.36-10Q18.36-13.24 16.56-15.36L16.56-15.36Q14.68-17.60 11.44-17.60L11.44-17.60Q8.24-17.60 6.24-15.36L6.24-15.36Q4.36-13.24 4.36-10L4.36-10Q4.36-6.76 6.24-4.64L6.24-4.64Q8.24-2.40 11.44-2.40Z M39.08-20.32L39.08-20.32Q43.56-20.32 46.36-17.32L46.36-17.32Q49-14.44 49-10L49-10Q49-5.56 46.36-2.68L46.36-2.68Q43.56 0.32 39.08 0.32L39.08 0.32Q34.60 0.32 31.80-2.68L31.80-2.68Q29.16-5.56 29.16-10L29.16-10Q29.16-14.44 31.80-17.32L31.80-17.32Q34.60-20.32 39.08-20.32ZM39.08-2.40L39.08-2.40Q42.32-2.40 44.20-4.64L44.20-4.64Q46-6.76 46-10L46-10Q46-13.24 44.20-15.36L44.20-15.36Q42.32-17.60 39.08-17.60L39.08-17.60Q35.84-17.60 33.96-15.36L33.96-15.36Q32.16-13.24 32.16-10L32.16-10Q32.16-6.76 33.96-4.64L33.96-4.64Q35.84-2.40 39.08-2.40Z M78.72-2.40L78.72-2.40Q80.64-2.40 82.12-3.48Q83.60-4.56 84.28-6.28L84.28-6.28L87.52-6.28Q86.60-3.32 84.16-1.52L84.16-1.52Q81.60 0.32 78.08 0.32L78.08 0.32Q73.68 0.32 70.92-2.68L70.92-2.68Q68.24-5.60 68.24-10L68.24-10Q68.24-14.40 70.92-17.32L70.92-17.32Q73.68-20.32 78.08-20.32L78.08-20.32Q81.60-20.32 84.16-18.48L84.16-18.48Q86.60-16.68 87.52-13.72L87.52-13.72L84.28-13.72Q83.60-15.44 82.12-16.52Q80.64-17.60 78.72-17.60Q76.80-17.60 75.46-17Q74.12-16.40 73.20-15.36L73.20-15.36Q71.24-13.20 71.24-10L71.24-10Q71.24-6.80 73.20-4.64L73.20-4.64Q75.20-2.40 78.72-2.40Z M110.84 0L110.84-3.20Q108.44 0.32 103.68 0.32L103.68 0.32Q99.36 0.32 96.64-2.68L96.64-2.68Q94-5.64 94-10L94-10Q94-14.36 96.64-17.32L96.64-17.32Q99.36-20.32 103.88-20.32Q108.40-20.32 110.84-16.76L110.84-16.76L110.84-20L113.84-20L113.84 0L110.84 0ZM104.08-2.40L104.08-2.40Q107.32-2.40 109.20-4.64L109.20-4.64Q111-6.76 111-10L111-10Q111-13.24 109.20-15.36L109.20-15.36Q107.32-17.60 104.08-17.60L104.08-17.60Q100.88-17.60 98.88-15.36L98.88-15.36Q97-13.24 97-10L97-10Q97-6.76 98.88-4.64L98.88-4.64Q100.88-2.40 104.08-2.40Z M126.04-20L126.04-16.96Q128.04-20.32 132.12-20.32L132.12-20.32Q134.12-20.32 135.82-19.26Q137.52-18.20 138.48-16.28L138.48-16.28Q139.84-18.80 142.72-19.88L142.72-19.88Q143.88-20.32 145.34-20.32Q146.80-20.32 148.14-19.74Q149.48-19.16 150.52-18.08L150.52-18.08Q152.76-15.68 152.76-12.08L152.76-12.08L152.76 0L149.76 0L149.76-12Q149.76-14.48 148.36-16.08L148.36-16.08Q146.96-17.60 144.80-17.60L144.80-17.60Q142.52-17.60 141-16.12L141-16.12Q139.40-14.60 139.40-11.96L139.40-11.96L139.40 0L136.40 0L136.40-12Q136.40-14.48 135-16.08L135-16.08Q133.60-17.60 131.44-17.60L131.44-17.60Q129.16-17.60 127.64-16.12L127.64-16.12Q126.04-14.60 126.04-11.96L126.04-11.96L126.04 0L123.04 0L123.04-20L126.04-20Z M164.76-20L164.76-16.80Q167.16-20.32 171.92-20.32L171.92-20.32Q176.24-20.32 178.92-17.32L178.92-17.32Q181.60-14.36 181.60-10L181.60-10Q181.60-5.64 178.92-2.68L178.92-2.68Q176.24 0.32 171.72 0.32Q167.20 0.32 164.76-3.24L164.76-3.24L164.76 7.92L161.76 7.92L161.76-20L164.76-20ZM171.52-17.60L171.52-17.60Q168.28-17.60 166.40-15.36L166.40-15.36Q164.60-13.24 164.60-10L164.60-10Q164.60-6.76 166.40-4.64L166.40-4.64Q168.28-2.40 171.52-2.40L171.52-2.40Q174.72-2.40 176.72-4.64L176.72-4.64Q178.60-6.76 178.60-10L178.60-10Q178.60-13.24 176.72-15.36L176.72-15.36Q174.72-17.60 171.52-17.60Z M198.20-20.32L198.20-20.32Q202.68-20.32 205.48-17.32L205.48-17.32Q208.12-14.44 208.12-10L208.12-10Q208.12-5.56 205.48-2.68L205.48-2.68Q202.68 0.32 198.20 0.32L198.20 0.32Q193.72 0.32 190.92-2.68L190.92-2.68Q188.28-5.56 188.28-10L188.28-10Q188.28-14.44 190.92-17.32L190.92-17.32Q193.72-20.32 198.20-20.32ZM198.20-2.40L198.20-2.40Q201.44-2.40 203.32-4.64L203.32-4.64Q205.12-6.76 205.12-10L205.12-10Q205.12-13.24 203.32-15.36L203.32-15.36Q201.44-17.60 198.20-17.60L198.20-17.60Q194.96-17.60 193.08-15.36L193.08-15.36Q191.28-13.24 191.28-10L191.28-10Q191.28-6.76 193.08-4.64L193.08-4.64Q194.96-2.40 198.20-2.40Z M244.20 0L244.20-3.20Q241.80 0.32 237.04 0.32L237.04 0.32Q232.72 0.32 230-2.68L230-2.68Q227.36-5.64 227.36-10L227.36-10Q227.36-14.36 230-17.32L230-17.32Q232.72-20.32 237.24-20.32Q241.76-20.32 244.20-16.76L244.20-16.76L244.20-20L247.20-20L247.20 0L244.20 0ZM237.44-2.40L237.44-2.40Q240.68-2.40 242.56-4.64L242.56-4.64Q244.36-6.76 244.36-10L244.36-10Q244.36-13.24 242.56-15.36L242.56-15.36Q240.68-17.60 237.44-17.60L237.44-17.60Q234.24-17.60 232.24-15.36L232.24-15.36Q230.36-13.24 230.36-10L230.36-10Q230.36-6.76 232.24-4.64L232.24-4.64Q234.24-2.40 237.44-2.40Z M278.16-2.40L278.16-2.40Q280.08-2.40 281.56-3.48Q283.04-4.56 283.72-6.28L283.72-6.28L286.96-6.28Q286.04-3.32 283.60-1.52L283.60-1.52Q281.04 0.32 277.52 0.32L277.52 0.32Q273.12 0.32 270.36-2.68L270.36-2.68Q267.68-5.60 267.68-10L267.68-10Q267.68-14.40 270.36-17.32L270.36-17.32Q273.12-20.32 277.52-20.32L277.52-20.32Q281.04-20.32 283.60-18.48L283.60-18.48Q286.04-16.68 286.96-13.72L286.96-13.72L283.72-13.72Q283.04-15.44 281.56-16.52Q280.08-17.60 278.16-17.60Q276.24-17.60 274.90-17Q273.56-16.40 272.64-15.36L272.64-15.36Q270.68-13.20 270.68-10L270.68-10Q270.68-6.80 272.64-4.64L272.64-4.64Q274.64-2.40 278.16-2.40Z M294.68 0L294.68-20L297.68-20L297.68 0L294.68 0ZM294.56-27.28L297.80-27.28L297.80-23.36L294.56-23.36L294.56-27.28Z M322.48 0L322.48-3.20Q320.08 0.32 315.32 0.32L315.32 0.32Q311 0.32 308.28-2.68L308.28-2.68Q305.64-5.64 305.64-10L305.64-10Q305.64-14.36 308.28-17.32L308.28-17.32Q311-20.32 315.52-20.32Q320.04-20.32 322.48-16.76L322.48-16.76L322.48-28L325.48-28L325.48 0L322.48 0ZM315.72-2.40L315.72-2.40Q318.96-2.40 320.84-4.64L320.84-4.64Q322.64-6.76 322.64-10L322.64-10Q322.64-13.24 320.84-15.36L320.84-15.36Q318.96-17.60 315.72-17.60L315.72-17.60Q312.52-17.60 310.52-15.36L310.52-15.36Q308.64-13.24 308.64-10L308.64-10Q308.64-6.76 310.52-4.64L310.52-4.64Q312.52-2.40 315.72-2.40Z M350.28 0L350.28-3.20Q347.88 0.32 343.12 0.32L343.12 0.32Q338.80 0.32 336.08-2.68L336.08-2.68Q333.44-5.64 333.44-10L333.44-10Q333.44-14.36 336.08-17.32L336.08-17.32Q338.80-20.32 343.32-20.32Q347.84-20.32 350.28-16.76L350.28-16.76L350.28-20L353.28-20L353.28 0L350.28 0ZM343.52-2.40L343.52-2.40Q346.76-2.40 348.64-4.64L348.64-4.64Q350.44-6.76 350.44-10L350.44-10Q350.44-13.24 348.64-15.36L348.64-15.36Q346.76-17.60 343.52-17.60L343.52-17.60Q340.32-17.60 338.32-15.36L338.32-15.36Q336.44-13.24 336.44-10L336.44-10Q336.44-6.76 338.32-4.64L338.32-4.64Q340.32-2.40 343.52-2.40Z M378.08 0L378.08-3.20Q375.68 0.32 370.92 0.32L370.92 0.32Q366.60 0.32 363.88-2.68L363.88-2.68Q361.24-5.64 361.24-10L361.24-10Q361.24-14.36 363.88-17.32L363.88-17.32Q366.60-20.32 371.12-20.32Q375.64-20.32 378.08-16.76L378.08-16.76L378.08-28L381.08-28L381.08 0L378.08 0ZM371.32-2.40L371.32-2.40Q374.56-2.40 376.44-4.64L376.44-4.64Q378.24-6.76 378.24-10L378.24-10Q378.24-13.24 376.44-15.36L376.44-15.36Q374.56-17.60 371.32-17.60L371.32-17.60Q368.12-17.60 366.12-15.36L366.12-15.36Q364.24-13.24 364.24-10L364.24-10Q364.24-6.76 366.12-4.64L366.12-4.64Q368.12-2.40 371.32-2.40Z M399.20-2.40L399.20-2.40Q403.24-2.40 405-5.76L405-5.76L408.28-5.76Q407.24-3.04 404.98-1.36Q402.72 0.32 399.16 0.32L399.16 0.32Q394.64 0.32 391.80-2.68L391.80-2.68Q389.04-5.60 389.04-10L389.04-10Q389.04-14.44 391.68-17.32L391.68-17.32Q394.48-20.32 398.96-20.32L398.96-20.32Q403.44-20.32 406.24-17.32L406.24-17.32Q408.88-14.44 408.88-10L408.88-10L408.88-8.80L392.12-8.80Q392.44-6.04 394.32-4.24L394.32-4.24Q396.24-2.40 399.20-2.40ZM398.96-17.60L398.96-17.60Q396.20-17.60 394.32-15.88L394.32-15.88Q392.56-14.24 392.16-11.60L392.16-11.60L405.76-11.60Q405.36-14.24 403.60-15.88L403.60-15.88Q401.72-17.60 398.96-17.60Z M438.32-2.40L438.32-2.40Q440.24-2.40 441.72-3.48Q443.20-4.56 443.88-6.28L443.88-6.28L447.12-6.28Q446.20-3.32 443.76-1.52L443.76-1.52Q441.20 0.32 437.68 0.32L437.68 0.32Q433.28 0.32 430.52-2.68L430.52-2.68Q427.84-5.60 427.84-10L427.84-10Q427.84-14.40 430.52-17.32L430.52-17.32Q433.28-20.32 437.68-20.32L437.68-20.32Q441.20-20.32 443.76-18.48L443.76-18.48Q446.20-16.68 447.12-13.72L447.12-13.72L443.88-13.72Q443.20-15.44 441.72-16.52Q440.24-17.60 438.32-17.60Q436.40-17.60 435.06-17Q433.72-16.40 432.80-15.36L432.80-15.36Q430.84-13.20 430.84-10L430.84-10Q430.84-6.80 432.80-4.64L432.80-4.64Q434.80-2.40 438.32-2.40Z M463.52-20.32L463.52-20.32Q468-20.32 470.80-17.32L470.80-17.32Q473.44-14.44 473.44-10L473.44-10Q473.44-5.56 470.80-2.68L470.80-2.68Q468 0.32 463.52 0.32L463.52 0.32Q459.04 0.32 456.24-2.68L456.24-2.68Q453.60-5.56 453.60-10L453.60-10Q453.60-14.44 456.24-17.32L456.24-17.32Q459.04-20.32 463.52-20.32ZM463.52-2.40L463.52-2.40Q466.76-2.40 468.64-4.64L468.64-4.64Q470.44-6.76 470.44-10L470.44-10Q470.44-13.24 468.64-15.36L468.64-15.36Q466.76-17.60 463.52-17.60L463.52-17.60Q460.28-17.60 458.40-15.36L458.40-15.36Q456.60-13.24 456.60-10L456.60-10Q456.60-6.76 458.40-4.64L458.40-4.64Q460.28-2.40 463.52-2.40Z M484.40-20L484.40-16.96Q486.40-20.32 490.48-20.32L490.48-20.32Q492.48-20.32 494.18-19.26Q495.88-18.20 496.84-16.28L496.84-16.28Q498.20-18.80 501.08-19.88L501.08-19.88Q502.24-20.32 503.70-20.32Q505.16-20.32 506.50-19.74Q507.84-19.16 508.88-18.08L508.88-18.08Q511.12-15.68 511.12-12.08L511.12-12.08L511.12 0L508.12 0L508.12-12Q508.12-14.48 506.72-16.08L506.72-16.08Q505.32-17.60 503.16-17.60L503.16-17.60Q500.88-17.60 499.36-16.12L499.36-16.12Q497.76-14.60 497.76-11.96L497.76-11.96L497.76 0L494.76 0L494.76-12Q494.76-14.48 493.36-16.08L493.36-16.08Q491.96-17.60 489.80-17.60L489.80-17.60Q487.52-17.60 486-16.12L486-16.12Q484.40-14.60 484.40-11.96L484.40-11.96L484.40 0L481.40 0L481.40-20L484.40-20Z M535.64-20L535.64-16.80Q538.04-20.32 542.80-20.32L542.80-20.32Q547.12-20.32 549.80-17.32L549.80-17.32Q552.48-14.36 552.48-10L552.48-10Q552.48-5.64 549.80-2.68L549.80-2.68Q547.12 0.32 542.60 0.32Q538.08 0.32 535.64-3.24L535.64-3.24L535.64 7.92L532.64 7.92L532.64-20L535.64-20ZM542.40-17.60L542.40-17.60Q539.16-17.60 537.28-15.36L537.28-15.36Q535.48-13.24 535.48-10L535.48-10Q535.48-6.76 537.28-4.64L537.28-4.64Q539.16-2.40 542.40-2.40L542.40-2.40Q545.60-2.40 547.60-4.64L547.60-4.64Q549.48-6.76 549.48-10L549.48-10Q549.48-13.24 547.60-15.36L547.60-15.36Q545.60-17.60 542.40-17.60Z M570.76-20.32L570.96-20.32L570.96-17.32L570.60-17.32Q567.36-17.32 565.32-14.72L565.32-14.72Q563.40-12.24 563.40-8.80L563.40-8.80L563.40 0L560.40 0L560.40-20L563.40-20L563.40-15.08Q564.36-18.20 567.56-19.68L567.56-19.68Q568.88-20.32 570.76-20.32L570.76-20.32Z M593.28 0L593.28-3.20Q590.88 0.32 586.12 0.32L586.12 0.32Q581.80 0.32 579.08-2.68L579.08-2.68Q576.44-5.64 576.44-10L576.44-10Q576.44-14.36 579.08-17.32L579.08-17.32Q581.80-20.32 586.32-20.32Q590.84-20.32 593.28-16.76L593.28-16.76L593.28-20L596.28-20L596.28 0L593.28 0ZM586.52-2.40L586.52-2.40Q589.76-2.40 591.64-4.64L591.64-4.64Q593.44-6.76 593.44-10L593.44-10Q593.44-13.24 591.64-15.36L591.64-15.36Q589.76-17.60 586.52-17.60L586.52-17.60Q583.32-17.60 581.32-15.36L581.32-15.36Q579.44-13.24 579.44-10L579.44-10Q579.44-6.76 581.32-4.64L581.32-4.64Q583.32-2.40 586.52-2.40Z M610.64 0L607.64 0L607.64-17.36L603.56-17.36L603.56-20L607.64-20L607.64-27.16L610.64-27.16L610.64-20L615.24-20L615.24-17.36L610.64-17.36L610.64 0Z M622.52 0L622.52-20L625.52-20L625.52 0L622.52 0ZM622.40-27.28L625.64-27.28L625.64-23.36L622.40-23.36L622.40-27.28Z M643.96-2.40L643.96-2.40Q645.88-2.40 647.36-3.48Q648.84-4.56 649.52-6.28L649.52-6.28L652.76-6.28Q651.84-3.32 649.40-1.52L649.40-1.52Q646.84 0.32 643.32 0.32L643.32 0.32Q638.92 0.32 636.16-2.68L636.16-2.68Q633.48-5.60 633.48-10L633.48-10Q633.48-14.40 636.16-17.32L636.16-17.32Q638.92-20.32 643.32-20.32L643.32-20.32Q646.84-20.32 649.40-18.48L649.40-18.48Q651.84-16.68 652.76-13.72L652.76-13.72L649.52-13.72Q648.84-15.44 647.36-16.52Q645.88-17.60 643.96-17.60Q642.04-17.60 640.70-17Q639.36-16.40 638.44-15.36L638.44-15.36Q636.48-13.20 636.48-10L636.48-10Q636.48-6.80 638.44-4.64L638.44-4.64Q640.44-2.40 643.96-2.40Z M660.48 0L660.48-20L663.48-20L663.48 0L660.48 0ZM660.36-27.28L663.60-27.28L663.60-23.36L660.36-23.36L660.36-27.28Z M688.28 0L688.28-3.20Q685.88 0.32 681.12 0.32L681.12 0.32Q676.80 0.32 674.08-2.68L674.08-2.68Q671.44-5.64 671.44-10L671.44-10Q671.44-14.36 674.08-17.32L674.08-17.32Q676.80-20.32 681.32-20.32Q685.84-20.32 688.28-16.76L688.28-16.76L688.28-28L691.28-28L691.28 0L688.28 0ZM681.52-2.40L681.52-2.40Q684.76-2.40 686.64-4.64L686.64-4.64Q688.44-6.76 688.44-10L688.44-10Q688.44-13.24 686.64-15.36L686.64-15.36Q684.76-17.60 681.52-17.60L681.52-17.60Q678.32-17.60 676.32-15.36L676.32-15.36Q674.44-13.24 674.44-10L674.44-10Q674.44-6.76 676.32-4.64L676.32-4.64Q678.32-2.40 681.52-2.40Z M716.08 0L716.08-3.20Q713.68 0.32 708.92 0.32L708.92 0.32Q704.60 0.32 701.88-2.68L701.88-2.68Q699.24-5.64 699.24-10L699.24-10Q699.24-14.36 701.88-17.32L701.88-17.32Q704.60-20.32 709.12-20.32Q713.64-20.32 716.08-16.76L716.08-16.76L716.08-20L719.08-20L719.08 0L716.08 0ZM709.32-2.40L709.32-2.40Q712.56-2.40 714.44-4.64L714.44-4.64Q716.24-6.76 716.24-10L716.24-10Q716.24-13.24 714.44-15.36L714.44-15.36Q712.56-17.60 709.32-17.60L709.32-17.60Q706.12-17.60 704.12-15.36L704.12-15.36Q702.24-13.24 702.24-10L702.24-10Q702.24-6.76 704.12-4.64L704.12-4.64Q706.12-2.40 709.32-2.40Z M743.88 0L743.88-3.20Q741.48 0.32 736.72 0.32L736.72 0.32Q732.40 0.32 729.68-2.68L729.68-2.68Q727.04-5.64 727.04-10L727.04-10Q727.04-14.36 729.68-17.32L729.68-17.32Q732.40-20.32 736.92-20.32Q741.44-20.32 743.88-16.76L743.88-16.76L743.88-28L746.88-28L746.88 0L743.88 0ZM737.12-2.40L737.12-2.40Q740.36-2.40 742.24-4.64L742.24-4.64Q744.04-6.76 744.04-10L744.04-10Q744.04-13.24 742.24-15.36L742.24-15.36Q740.36-17.60 737.12-17.60L737.12-17.60Q733.92-17.60 731.92-15.36L731.92-15.36Q730.04-13.24 730.04-10L730.04-10Q730.04-6.76 731.92-4.64L731.92-4.64Q733.92-2.40 737.12-2.40Z M765.00-2.40L765.00-2.40Q769.04-2.40 770.80-5.76L770.80-5.76L774.08-5.76Q773.04-3.04 770.78-1.36Q768.52 0.32 764.96 0.32L764.96 0.32Q760.44 0.32 757.60-2.68L757.60-2.68Q754.84-5.60 754.84-10L754.84-10Q754.84-14.44 757.48-17.32L757.48-17.32Q760.28-20.32 764.76-20.32L764.76-20.32Q769.24-20.32 772.04-17.32L772.04-17.32Q774.68-14.44 774.68-10L774.68-10L774.68-8.80L757.92-8.80Q758.24-6.04 760.12-4.24L760.12-4.24Q762.04-2.40 765.00-2.40ZM764.76-17.60L764.76-17.60Q762.00-17.60 760.12-15.88L760.12-15.88Q758.36-14.24 757.96-11.60L757.96-11.60L771.56-11.60Q771.16-14.24 769.40-15.88L769.40-15.88Q767.52-17.60 764.76-17.60Z"/></g>
</svg>
</g><g opacity="1" transform="rotate(0 97.569 394.7703)">
<svg width="366.2838" height="50" x="97.569" y="394.7703" version="1.1" preserveAspectRatio="none" viewBox="1.4 -33.2 319.4 43.60000000000001">
  <g transform="matrix(1 0 0 1 0 0)" class="companyName"><path id="id-D6z1nYkh13" d="M27.80-23.08L27.80-23.08Q27.80-19.76 25.88-17.52Q23.96-15.28 19.76-14.52L19.76-14.52L29.04-3.88Q30-2.76 31.32-2.18Q32.64-1.60 34-1.60L34-1.60L34 0L24.52 0L14.60-12.16Q13.60-13.36 12.86-13.78Q12.12-14.20 11.48-14.20L11.48-14.20L11.48-6.36Q11.48-4.88 11.68-3.94Q11.88-3 12.48-2.48Q13.08-1.96 14.22-1.78Q15.36-1.60 17.28-1.60L17.28-1.60L17.28 0L1.40 0L1.40-1.60Q2.72-1.60 3.54-1.78Q4.36-1.96 4.82-2.46Q5.28-2.96 5.44-3.86Q5.60-4.76 5.60-6.16L5.60-6.16L5.60-24.64Q5.60-26.04 5.48-26.90Q5.36-27.76 4.96-28.26Q4.56-28.76 3.82-28.94Q3.08-29.12 1.84-29.20L1.84-29.20L1.84-30.80L15.68-30.80Q21.48-30.80 24.64-28.76Q27.80-26.72 27.80-23.08ZM11.48-27.88L11.48-16.60L14.08-16.60Q17.84-16.60 19.70-18.06Q21.56-19.52 21.56-22.88L21.56-22.88Q21.56-25.44 20-27Q18.44-28.56 15.68-28.56L15.68-28.56L12.20-28.56Q11.48-28.56 11.48-27.88L11.48-27.88Z M47.36-21.60L47.36-21.60Q49.76-21.60 51.90-20.78Q54.04-19.96 55.66-18.52Q57.28-17.08 58.22-15.10Q59.16-13.12 59.16-10.76L59.16-10.76Q59.16-8.32 58.22-6.28Q57.28-4.24 55.66-2.76Q54.04-1.28 51.90-0.44Q49.76 0.40 47.36 0.40L47.36 0.40Q45 0.40 42.88-0.42Q40.76-1.24 39.16-2.72Q37.56-4.20 36.64-6.26Q35.72-8.32 35.72-10.76L35.72-10.76Q35.72-13.12 36.64-15.12Q37.56-17.12 39.16-18.56Q40.76-20 42.88-20.80Q45-21.60 47.36-21.60ZM47.36-19.28L47.36-19.28Q46.16-19.28 45.16-18.66Q44.16-18.04 43.46-16.92Q42.76-15.80 42.38-14.22Q42-12.64 42-10.72L42-10.72Q42-8.72 42.38-7.12Q42.76-5.52 43.46-4.40Q44.16-3.28 45.14-2.66Q46.12-2.04 47.36-2.04L47.36-2.04Q48.60-2.04 49.62-2.66Q50.64-3.28 51.36-4.42Q52.08-5.56 52.48-7.16Q52.88-8.76 52.88-10.72L52.88-10.72Q52.88-12.64 52.48-14.20Q52.08-15.76 51.36-16.90Q50.64-18.04 49.62-18.66Q48.60-19.28 47.36-19.28Z M82.72-4.84L83.76-3.32Q82.28-1.64 80.08-0.76Q77.88 0.12 75.36 0.20L75.36 0.20L74.40 2.48Q76.92 2.48 78.36 3.48Q79.80 4.48 79.80 6.20L79.80 6.20Q79.80 8.08 78.22 9.24Q76.64 10.40 74.12 10.40L74.12 10.40Q71.84 10.40 70.36 9.44Q68.88 8.48 68.88 6.96L68.88 6.96Q68.88 6.16 69.26 5.74Q69.64 5.32 70.32 5.32L70.32 5.32Q70.88 5.32 71.24 5.64Q71.60 5.96 71.96 6.80L71.96 6.80Q72.36 7.76 72.74 8.12Q73.12 8.48 73.80 8.48L73.80 8.48Q74.60 8.48 75.08 7.98Q75.56 7.48 75.56 6.68L75.56 6.68Q75.56 4.52 72.52 4.52L72.52 4.52Q72.20 4.52 71.72 4.54Q71.24 4.56 70.96 4.60L70.96 4.60L70.88 4.48L72.84 0Q70.88-0.32 69.28-1.20Q67.68-2.08 66.56-3.46Q65.44-4.84 64.82-6.62Q64.20-8.40 64.20-10.52L64.20-10.52Q64.20-13 65.04-15.04Q65.88-17.08 67.40-18.54Q68.92-20 71.04-20.80Q73.16-21.60 75.72-21.60L75.72-21.60Q77.52-21.60 79.06-21.24Q80.60-20.88 81.70-20.24Q82.80-19.60 83.44-18.74Q84.08-17.88 84.08-16.88L84.08-16.88Q84.08-15.72 83.42-15.04Q82.76-14.36 81.64-14.36L81.64-14.36Q80.72-14.36 80.02-14.84Q79.32-15.32 78.64-16.40L78.64-16.40Q78.04-17.36 77.62-17.92Q77.20-18.48 76.84-18.78Q76.48-19.08 76.12-19.18Q75.76-19.28 75.24-19.28L75.24-19.28Q72.92-19.28 71.64-17.12Q70.36-14.96 70.36-11.08L70.36-11.08Q70.36-6.92 71.90-4.68Q73.44-2.44 76.32-2.44L76.32-2.44Q77.96-2.44 79.60-3.06Q81.24-3.68 82.72-4.84L82.72-4.84Z M100.96-7.60L100.96-11.40Q97.60-9.88 95.90-8.58Q94.20-7.28 94.20-5.88L94.20-5.88Q94.20-4.72 94.84-4.04Q95.48-3.36 96.44-3.36L96.44-3.36Q97.40-3.36 98.24-3.70Q99.08-4.04 99.68-4.60Q100.28-5.16 100.62-5.94Q100.96-6.72 100.96-7.60L100.96-7.60ZM95.32-11.08L100.96-13.52L100.96-15.20Q100.96-17.52 100.14-18.58Q99.32-19.64 97.60-19.64L97.60-19.64Q96.44-19.64 95.84-19.02Q95.24-18.40 94.72-16.96L94.72-16.96Q94.36-15.96 93.70-15.40Q93.04-14.84 91.88-14.84L91.88-14.84Q90.76-14.84 90.16-15.52Q89.56-16.20 89.56-17.44L89.56-17.44Q89.56-19.36 91.66-20.48Q93.76-21.60 98-21.60L98-21.60Q102.48-21.60 104.40-19.98Q106.32-18.36 106.32-14.56L106.32-14.56L106.32-5.80Q106.32-2.40 107.68-2.40L107.68-2.40Q108.44-2.40 109.08-2.92L109.08-2.92L109.68-1.76Q109.12-0.76 107.94-0.18Q106.76 0.40 105.28 0.40L105.28 0.40Q103.44 0.40 102.48-0.72Q101.52-1.84 101.52-3.88L101.52-3.88L101.32-3.88Q100.16-1.80 98.32-0.72Q96.48 0.36 94.12 0.36L94.12 0.36Q91.60 0.36 90.08-1.06Q88.56-2.48 88.56-4.76L88.56-4.76Q88.56-6.52 90.12-8.06Q91.68-9.60 95.32-11.08L95.32-11.08Z M142.88 0L126.20 0L126.20-1.60Q127.52-1.64 128.34-1.82Q129.16-2 129.62-2.50Q130.08-3 130.24-3.86Q130.40-4.72 130.40-6.16L130.40-6.16L130.40-24.64Q130.40-26.04 130.28-26.90Q130.16-27.76 129.76-28.26Q129.36-28.76 128.66-28.94Q127.96-29.12 126.84-29.20L126.84-29.20L126.84-30.80L142.04-30.80Q145.88-30.80 149.12-29.60Q152.36-28.40 154.72-26.28Q157.08-24.16 158.40-21.24Q159.72-18.32 159.72-14.88L159.72-14.88Q159.72-11.60 158.48-8.86Q157.24-6.12 155.02-4.16Q152.80-2.20 149.70-1.10Q146.60 0 142.88 0L142.88 0ZM141.96-28.36L136.96-28.36Q136.28-28.36 136.28-27.68L136.28-27.68L136.28-7Q136.28-4.68 137.72-3.56Q139.16-2.44 142.16-2.44L142.16-2.44Q147.40-2.44 150.22-5.60Q153.04-8.76 153.04-14.80L153.04-14.80Q153.04-18 152.28-20.52Q151.52-23.04 150.08-24.78Q148.64-26.52 146.58-27.44Q144.52-28.36 141.96-28.36L141.96-28.36Z M184.04-5.12L185.16-3.72Q181.52 0.40 176.08 0.40L176.08 0.40Q173.60 0.40 171.58-0.38Q169.56-1.16 168.12-2.58Q166.68-4 165.88-5.96Q165.08-7.92 165.08-10.32L165.08-10.32Q165.08-12.80 165.92-14.86Q166.76-16.92 168.30-18.42Q169.84-19.92 171.94-20.76Q174.04-21.60 176.56-21.60L176.56-21.60Q180.80-21.60 183.16-19.32Q185.52-17.04 185.52-12.92L185.52-12.92Q185.52-12.28 185.32-12.14Q185.12-12 184.20-12L184.20-12L171.32-12Q171.16-11.64 171.16-10.68L171.16-10.68Q171.16-6.76 172.86-4.48Q174.56-2.20 177.48-2.20L177.48-2.20Q179.16-2.20 180.82-2.96Q182.48-3.72 184.04-5.12L184.04-5.12ZM171.60-14.24L177.40-14.24Q179-14.24 179.46-14.42Q179.92-14.60 179.92-15.28L179.92-15.28Q179.92-17.04 178.92-18.16Q177.92-19.28 176.40-19.28L176.40-19.28Q174.68-19.28 173.34-17.86Q172-16.44 171.60-14.24L171.60-14.24Z M198.84-33.20L198.84-6.56Q198.84-4.96 198.96-4Q199.08-3.04 199.44-2.52Q199.80-2 200.48-1.82Q201.16-1.64 202.32-1.60L202.32-1.60L202.32 0L189.72 0L189.72-1.60Q190.84-1.64 191.54-1.86Q192.24-2.08 192.62-2.58Q193-3.08 193.14-3.98Q193.28-4.88 193.28-6.28L193.28-6.28L193.28-22.80Q193.28-25.12 193.20-26.62Q193.12-28.12 193-28.68L193-28.68Q192.80-29.68 192.10-30Q191.40-30.32 189.56-30.32L189.56-30.32L189.56-31.68L198.84-33.20Z M215.44-21.60L215.44-6.56Q215.44-4.96 215.56-4Q215.68-3.04 216.04-2.52Q216.40-2 217.08-1.82Q217.76-1.64 218.92-1.60L218.92-1.60L218.92 0L206.32 0L206.32-1.60Q207.44-1.64 208.14-1.86Q208.84-2.08 209.22-2.58Q209.60-3.08 209.74-3.98Q209.88-4.88 209.88-6.28L209.88-6.28L209.88-11.20Q209.88-13.52 209.80-15.02Q209.72-16.52 209.60-17.08L209.60-17.08Q209.40-18.08 208.70-18.40Q208-18.72 206.16-18.72L206.16-18.72L206.16-20.08L215.44-21.60ZM209.56-30.08L209.56-30.08Q209.56-31.40 210.46-32.30Q211.36-33.20 212.64-33.20L212.64-33.20Q213.96-33.20 214.86-32.30Q215.76-31.40 215.76-30.08L215.76-30.08Q215.76-28.80 214.86-27.90Q213.96-27 212.64-27L212.64-27Q211.36-27 210.46-27.90Q209.56-28.80 209.56-30.08Z M231.56 0.40L225.24-16.04Q224.80-17.20 224.40-17.90Q224-18.60 223.58-18.98Q223.16-19.36 222.66-19.48Q222.16-19.60 221.48-19.60L221.48-19.60L221.48-21.20L233.44-21.20L233.44-19.60Q232.44-19.60 231.86-19.52Q231.28-19.44 230.98-19.28Q230.68-19.12 230.60-18.86Q230.52-18.60 230.52-18.28L230.52-18.28Q230.52-17.76 230.72-17.08Q230.92-16.40 231.20-15.72L231.20-15.72L235-5.24L235.16-5.24L239.44-15.68Q239.72-16.36 239.88-16.90Q240.04-17.44 240.04-17.88L240.04-17.88Q240.04-18.76 239.44-19.16Q238.84-19.56 237.32-19.60L237.32-19.60L237.32-21.20L246.16-21.20L246.16-19.60Q245.08-19.60 244.30-19.04Q243.52-18.48 242.68-16.56L242.68-16.56L235.20 0.40L231.56 0.40Z M267.80-5.12L268.92-3.72Q265.28 0.40 259.84 0.40L259.84 0.40Q257.36 0.40 255.34-0.38Q253.32-1.16 251.88-2.58Q250.44-4 249.64-5.96Q248.84-7.92 248.84-10.32L248.84-10.32Q248.84-12.80 249.68-14.86Q250.52-16.92 252.06-18.42Q253.60-19.92 255.70-20.76Q257.80-21.60 260.32-21.60L260.32-21.60Q264.56-21.60 266.92-19.32Q269.28-17.04 269.28-12.92L269.28-12.92Q269.28-12.28 269.08-12.14Q268.88-12 267.96-12L267.96-12L255.08-12Q254.92-11.64 254.92-10.68L254.92-10.68Q254.92-6.76 256.62-4.48Q258.32-2.20 261.24-2.20L261.24-2.20Q262.92-2.20 264.58-2.96Q266.24-3.72 267.80-5.12L267.80-5.12ZM255.36-14.24L261.16-14.24Q262.76-14.24 263.22-14.42Q263.68-14.60 263.68-15.28L263.68-15.28Q263.68-17.04 262.68-18.16Q261.68-19.28 260.16-19.28L260.16-19.28Q258.44-19.28 257.10-17.86Q255.76-16.44 255.36-14.24L255.36-14.24Z M283.04-8.12L283.04-6.20Q283.04-4.64 283.18-3.74Q283.32-2.84 283.76-2.36Q284.20-1.88 285.04-1.74Q285.88-1.60 287.28-1.60L287.28-1.60L287.28 0L273.92 0L273.92-1.60Q275.12-1.68 275.84-1.84Q276.56-2 276.92-2.48Q277.28-2.96 277.38-3.86Q277.48-4.76 277.48-6.28L277.48-6.28L277.48-11.16Q277.48-13.64 277.36-15.12Q277.24-16.60 276.84-17.40Q276.44-18.20 275.70-18.46Q274.96-18.72 273.76-18.72L273.76-18.72L273.76-20.12L281.76-21.60L282.40-17L282.56-17Q283.64-19.12 285.40-20.36Q287.16-21.60 289.12-21.60L289.12-21.60Q290.64-21.60 291.60-20.84Q292.56-20.08 292.56-18.92L292.56-18.92Q292.56-17.64 291.82-16.76Q291.08-15.88 289.80-15.88L289.80-15.88Q289.20-15.88 288.72-16.12Q288.24-16.36 287.86-16.66Q287.48-16.96 287.10-17.22Q286.72-17.48 286.32-17.48L286.32-17.48Q285.56-17.48 284.88-16.48Q284.20-15.48 283.76-13.80L283.76-13.80Q283.44-12.60 283.24-11.10Q283.04-9.60 283.04-8.12L283.04-8.12Z M315.28-12.92L306.12 6.28Q305.68 7.16 305.02 7.92Q304.36 8.68 303.54 9.22Q302.72 9.76 301.84 10.08Q300.96 10.40 300.08 10.40L300.08 10.40Q298.76 10.40 297.96 9.76Q297.16 9.12 297.16 8.04L297.16 8.04Q297.16 7.04 297.86 6.48Q298.56 5.92 300.12 5.80L300.12 5.80Q303.68 5.52 304.72 3.56L304.72 3.56L305.80 1.48L298.72-16.04Q298.24-17.20 297.90-17.88Q297.56-18.56 297.16-18.94Q296.76-19.32 296.24-19.44Q295.72-19.56 294.96-19.60L294.96-19.60L294.96-21.20L307.08-21.20L307.08-19.60Q305.52-19.60 304.90-19.30Q304.28-19 304.28-18.20L304.28-18.20Q304.28-17.88 304.38-17.46Q304.48-17.04 304.64-16.60L304.64-16.60L308.72-4.92L308.88-4.92L312.32-12.72Q312.84-13.96 313.20-14.78Q313.56-15.60 313.74-16.18Q313.92-16.76 314-17.12Q314.08-17.48 314.08-17.84L314.08-17.84Q314.08-18.88 313.50-19.24Q312.92-19.60 311.16-19.60L311.16-19.60L311.16-21.20L320.80-21.20L320.80-19.60Q320-19.60 319.44-19.38Q318.88-19.16 318.30-18.48Q317.72-17.80 317.02-16.46Q316.32-15.12 315.28-12.92L315.28-12.92Z"/></g>
</svg>
</g><g opacity="1" transform="rotate(0 189.1399 197.4244)">
<svg width="183.1419" height="167.3459" x="189.1399" y="197.4244" version="1.1" preserveAspectRatio="none" viewBox="20 26.899991989135742 159.99998474121094 146.20001220703125">
  <g transform="matrix(1 0 0 1 0 0)"><g><path d="M143.9 99.1c3.6 0 6.9-1.4 9.4-3.9l22.8-22.8c2.5-2.5 3.9-5.8 3.9-9.4 0-3.5-1.4-6.9-3.9-9.4l-22.8-22.8c-2.5-2.5-5.8-3.9-9.4-3.9s-6.9 1.4-9.4 3.9l-22.8 22.8c-.8.8-1.4 1.6-2 2.5-3.2 1.8-5.8 3.5-7.9 5 .5-1.4.8-3 .8-4.6v-.3c0-.7-.1-1.4-.2-2.1h6.2c1.2 0 2.1-.9 2.1-2.1 0-1.2-.9-2.1-2.1-2.1h-7.7c-2.2-4.1-6.6-6.9-11.7-6.9h-.3c-7.3 0-13.3 5.9-13.3 13.3v.3c0 7.3 6 13.3 13.3 13.3h.3c.8 0 1.5-.1 2.2-.2L79.5 80.2l-16.2 8.1h-7.4c-4.2 0-7.5 3.4-7.5 7.5 0 1.3.3 2.6.9 3.6h-1.1c-4.6 0-8.3 3.7-8.3 8.3 0 4.6 3.7 8.3 8.3 8.3h8.5l-1.7 4.3c-2.5-.8-5.2-1.2-8-1.2-14.9 0-27 12.1-27 27s12.1 27 27 27 27-12.1 27-27c0-10.6-6.2-19.8-15.1-24.2l1.6-4 25 25s.1.1.2.1c-.5 1.2-.8 2.6-.8 4 0 6 4.9 10.9 10.9 10.9 2.9 0 5.7-1.1 7.7-3.2l.1-.1c2.9-1.1 5-3.7 5.4-6.9h7c.9 14.1 12.6 25.3 26.9 25.3 14.9 0 27-12.1 27-27s-12.1-27-27-27c-6.4 0-12.3 2.2-16.9 6l-6.8-7-.1-.1 12.4-12.3c1.8-1.8 2.9-4.2 2.9-6.8 0-1.7-.5-3.4-1.3-4.9l1.3 1.3c2.6 2.6 6 3.9 9.5 3.9zM69.8 146c0 12.6-10.2 22.8-22.8 22.8S24.2 158.6 24.2 146c0-12.6 10.2-22.8 22.8-22.8 2.2 0 4.4.3 6.4.9L45 145.2c-.4 1.1.1 2.3 1.2 2.7.3.1.5.1.8.1.8 0 1.6-.5 1.9-1.3l8.4-21.1c7.4 3.9 12.5 11.6 12.5 20.4zm103.4-76.5-22.8 22.8c-3.5 3.5-9.3 3.5-12.8 0l-10.4-10.4 35.7-35.6 10.4 10.4c3.4 3.5 3.4 9.2-.1 12.8zm-49.7 20.2c-.2.1-.3.2-.5.4l-8.3 8.3-6.5-6.4h.2c2.3 0 4.7-.5 7.1-1.5 2.3-.9 4.3-2.2 5.7-3.2l2.3 2.4zm-30.2 22.1-6.6-6.6c-1.6-1.6-1.6-3.7-1-5 .6-1.4 2-2.9 4.3-2.9h6.1v14.5h-2.8zm8.1 4.2c-.4.9-.8 1.8-1.1 2.7l-2.7-2.7h3.8zm1.9 27.5v-18c0-3.1.8-6.1 2.4-8.7.1-.2.3-.5.5-.8h2.9l2.6 2.6c-.1.3-.2.6-.2.9l-5.4 24h-2.8zm1.6-31.7h-4.6V97.3h7.2l4.2 4.1-8.6 8.6 1.8 1.8zM83.6 82.2 97 70.6c2.1-1.8 5.4-1.7 7.4.2l13.8 13.6c-3.7 2.5-10.8 6-17.2.6-2.9-2.8-7.5-3-10.8-.6l-2.9 2.2-3.7-4.4zm47.9-42.4 4.9 4.9L126.1 55l-4.9-4.9 10.3-10.3zm20.3-4.5 8 8L124.1 79l-8-8 35.7-35.7zm-14.3-1.5c1.8-1.8 4.1-2.7 6.4-2.7 1.7 0 3.3.5 4.8 1.4l-9.2 9.2-4.9-4.9 2.9-3zm-19.3 19.3 4.9 4.9-9.8 9.8c-2.2-3.5-1.7-8.1 1.3-11.2l3.6-3.5zm-7.9 17.7-3-2.9c-1.2-1.2-2.7-2-4.2-2.4 1.3-1 2.9-2 4.7-3.2v.8c0 2.8.9 5.5 2.5 7.7zM89.1 47.2h.3c2.5 0 4.9 1.1 6.5 2.8H82.6c1.7-1.7 4-2.8 6.5-2.8zm0 18.4c-5 0-9.1-4.1-9.1-9.1v-.3c0-.7.1-1.4.3-2.1h17.9c.2.7.3 1.4.3 2.1v.3c0 5-4.1 9.1-9.1 9.1h-.3zM55.9 92.5h8.3l15.9-7.9 2.4 2.9L63 97c-1-.7-2.3-1.2-3.6-1.2-2.2 0-4.1 1.1-5.2 2.8-1-.6-1.6-1.6-1.6-2.9 0-1.7 1.5-3.2 3.3-3.2zm3.5 7.5c1.1 0 2 .9 2 2s-.9 2-2 2-2-.9-2-2 .9-2 2-2zm-15.3 7.7c0-2.3 1.8-4.1 4.1-4.1h5.2c.7 2.6 3.1 4.5 5.9 4.5 3.4 0 6.2-2.8 6.2-6.2 0-.5-.1-1-.2-1.5L85 90.8c.1 0 .2-.1.3-.2l1.4 1.7 6-4.6c1.6-1.2 4-1.1 5.4.3l5.1 5H89.9c-3.6 0-6.8 2.1-8.1 5.4-1.4 3.4-.7 7 1.9 9.6l3.7 3.7H48.2c-2.3.1-4.1-1.7-4.1-4zm20.5 8.3h27l7.2 7.2c.1.1.3.2.4.3-.1.7-.1 1.3-.1 2v11c-1-.3-2.1-.5-3.2-.5-3.1 0-5.9 1.3-7.9 3.3L64.6 116zm24.5 31c0-3.7 3-6.8 6.8-6.8 1.1 0 2.3.3 3.2.8v3c-3.7 1.3-6.4 4.8-6.4 8.9-2.2-1.1-3.6-3.4-3.6-5.9zm11.7 3.9h-3.5c.8-1.9 2.7-3.2 4.9-3.2h2.7c-.5 1.8-2.1 3.2-4.1 3.2zm37.4-7.4h-17.9c.5-4.8 2.6-9.2 5.6-12.6l12.3 12.6zm4.8-20.3c12.6 0 22.8 10.2 22.8 22.8 0 12.6-10.2 22.8-22.8 22.8-12 0-21.9-9.3-22.7-21.1h22.8c.8 0 1.6-.5 1.9-1.3.3-.8.2-1.7-.4-2.3L129 128c3.9-3 8.7-4.8 14-4.8zm-26.7-2.3 6.7 7c-3.8 4.2-6.4 9.7-6.9 15.7h-5.8l4.9-21.7 1.1-1c0-.1 0 0 0 0zm12.4-18.2-13.6 13.4-6.1-6.1 16.9-16.9c.2-.2.3-.3.4-.5l2.4 2.4c1 1 1.6 2.4 1.6 3.9 0 1.4-.5 2.7-1.6 3.8z" data-color="1" class="icon1"></path></g></g>
</svg>
</g></svg></svg>